<?xml version="1.0" encoding="utf-8"?>
<!-- Generator: Adobe Illustrator 23.0.1, SVG Export Plug-In . SVG Version: 6.00 Build 0)  -->
<svg version="1.1" id="Layer_1" xmlns="http://www.w3.org/2000/svg" xmlns:xlink="http://www.w3.org/1999/xlink" x="0px" y="0px"
	 viewBox="0 0 131.29 98" style="enable-background:new 0 0 131.29 98;" xml:space="preserve">
<style type="text/css">
	.st0{fill:#FDFDFE;}
	.st1{fill:#1D76BC;}
	.st2{fill:#F05D2E;}
	.st3{fill:#F05E2F;}
	.st4{fill:#2078BD;}
	.st5{fill:#F05F31;}
	.st6{fill:#F16133;}
	.st7{fill:#1C75BC;}
	.st8{fill:#237ABE;}
	.st9{fill:#F06031;}
	.st10{fill:#1E76BC;}
	.st11{fill:#2279BD;}
	.st12{fill:#1B75BB;}
	.st13{fill:#277CBF;}
	.st14{fill:#2E80C1;}
	.st15{fill:#2178BD;}
	.st16{fill:#68A3D2;}
	.st17{fill:#FBFCFD;}
	.st18{fill:#F4F8FB;}
</style>
<g>
	<path class="st0" d="M-6.88-12.17c48,0,96,0,144,0c0,48,0,96,0,144c-48,0-96,0-144,0C-6.88,83.83-6.88,35.83-6.88-12.17z
		 M10.93,62.2c0.27,0,0.43,0.02,0.59,0c4.19-0.51,8.38-1.02,12.56-1.56c0.45-0.06,0.94-0.26,1.3-0.53
		c14.94-11.18,29.87-22.38,44.79-33.58c0.2-0.15,0.37-0.33,0.63-0.57c-0.32-0.19-0.54-0.33-0.77-0.45
		c-3.97-2.19-7.94-4.38-11.91-6.57c-6.22-3.43-12.44-6.85-18.65-10.3c-0.55-0.3-0.83-0.24-1.1,0.34c-0.65,1.34-1.36,2.65-2.04,3.97
		c-8.35,16.15-16.71,32.31-25.06,48.46C11.16,61.64,11.07,61.88,10.93,62.2z M77.94,69.15c0.37-0.29,0.62-0.48,0.85-0.68
		c2.4-2.09,4.81-4.19,7.21-6.29c1.12-0.98,2.36-1.86,3.28-3c4.4-5.47,8.71-11.02,13.07-16.53c0.39-0.49,0.43-0.75-0.2-1.06
		c-9.34-4.69-18.68-9.41-28.02-14.11c-0.18-0.09-0.4-0.1-0.61-0.15c-0.03,0.19-0.05,0.26-0.05,0.33
		c-0.28,9.54-0.57,19.08-0.84,28.62c-0.01,0.32,0.04,0.68,0.17,0.98c1.45,3.42,2.93,6.83,4.4,10.25
		C77.42,68.01,77.66,68.52,77.94,69.15z M98.51,75.81c0.43,0,0.69,0,0.95,0c4.61-0.04,9.21-0.08,13.82-0.13
		c1.85-0.02,1.84-0.03,1.59-1.82c-1.19-8.6-2.37-17.19-3.58-25.79c-0.05-0.35-0.3-0.77-0.59-0.97c-1.73-1.25-3.5-2.44-5.26-3.65
		c-0.19-0.13-0.39-0.23-0.74-0.43C102.63,53.99,100.58,64.83,98.51,75.81z M71.05,52.49c0.19-8.27,0.38-16.41,0.57-24.69
		c-0.3,0.15-0.44,0.2-0.55,0.28c-3.53,2.6-7.06,5.21-10.6,7.81c-0.39,0.28-0.34,0.56-0.2,0.93c1.36,3.77,2.85,7.49,4.03,11.32
		c0.6,1.96,1.62,3.03,3.6,3.38C68.92,51.71,69.9,52.13,71.05,52.49z M116.38,71.11c0.25-0.11,0.34-0.13,0.42-0.18
		c3.33-2.39,6.65-4.8,9.99-7.18c0.47-0.34,0.23-0.58,0-0.88c-3.56-4.7-7.15-9.39-10.65-14.13c-0.73-0.99-1.42-1.46-2.66-1.15
		c-0.55,0.14-0.71,0.3-0.62,0.85c1.07,6.87,2.11,13.75,3.17,20.62C116.13,69.72,116.25,70.37,116.38,71.11z M19.25,62.88
		c-0.46,0.02-0.79,0.03-1.11,0.06c-2.48,0.26-4.95,0.56-7.44,0.78c-0.66,0.06-1.01,0.3-1.28,0.91c-2.07,4.62-4.17,9.22-6.25,13.83
		c-0.1,0.22-0.16,0.46-0.27,0.8c0.25-0.07,0.37-0.08,0.47-0.13c3.02-1.53,6.03-3.05,9.04-4.6c0.24-0.12,0.44-0.37,0.58-0.61
		c1.98-3.42,3.95-6.85,5.92-10.28C19.03,63.45,19.1,63.23,19.25,62.88z M127.25,77.79c1.64-0.06,2.71-1.16,3.96-1.83
		c0.1-0.05,0.11-0.49,0.01-0.66c-1.57-2.67-3.16-5.32-4.74-7.98c-0.2-0.34-0.38-0.43-0.74-0.19c-2.67,1.83-5.35,3.64-8.04,5.45
		c-0.43,0.29-0.31,0.5,0.03,0.76c0.69,0.52,1.37,1.05,2.04,1.59c1.15,0.94,2.25,1.97,3.89,1.89c0.13-0.01,0.26,0.13,0.4,0.15
		c0.41,0.06,0.82,0.1,1.23,0.15c0.31,0.04,0.63,0.06,0.93,0.16C126.59,77.42,126.92,77.62,127.25,77.79z M33.4,15.04
		c0.23-0.34,0.36-0.51,0.46-0.7c1.05-1.94,2.07-3.89,3.16-5.81c0.33-0.58,0.18-0.8-0.38-1.06c-5.17-2.41-10.33-4.85-15.49-7.28
		C20.97,0.11,20.78,0.06,20.6,0c-0.04,0.05-0.07,0.11-0.11,0.16C24.76,5.09,29.03,10.01,33.4,15.04z M38.54,93.73
		c-0.06,0.01-0.12,0.02-0.17,0.03c-1.46-1.87-2.91-3.75-4.38-5.61c-0.18-0.22-0.46-0.48-0.71-0.5c-0.81-0.06-1.62-0.02-2.48-0.02
		c0,3.42,0,6.79,0,10.18c0.93,0,1.83,0,2.8,0c0-2.08,0-4.11,0-6.29c1.6,2.05,3.1,3.98,4.61,5.9c0.14,0.17,0.34,0.4,0.53,0.41
		c0.85,0.04,1.71,0.02,2.56,0.02c0-3.45,0-6.81,0-10.2c-0.93,0-1.81,0-2.77,0C38.54,89.69,38.54,91.71,38.54,93.73z M105.77,93.73
		c-0.05,0.01-0.1,0.02-0.15,0.03c-1.46-1.87-2.91-3.75-4.38-5.61c-0.16-0.2-0.36-0.48-0.56-0.49c-0.87-0.05-1.75-0.02-2.63-0.02
		c0,3.45,0,6.8,0,10.18c0.93,0,1.83,0,2.8,0c0-2.08,0-4.11,0-6.3c1.6,2.06,3.1,3.98,4.61,5.9c0.14,0.17,0.34,0.4,0.53,0.41
		c0.85,0.04,1.71,0.02,2.57,0.02c0-3.45,0-6.81,0-10.17c-0.94,0-1.83,0-2.79,0C105.77,89.73,105.77,91.73,105.77,93.73z
		 M102.66,45.4c-0.08-0.03-0.16-0.06-0.24-0.09c-3.45,4.3-6.91,8.59-10.41,12.94c2.47,1.63,4.8,3.16,7.26,4.78
		C100.42,57.04,101.54,51.22,102.66,45.4z M86.48,64.18c-0.15,0.07-0.25,0.08-0.32,0.14c-2.39,2.08-4.78,4.15-7.13,6.26
		c-0.21,0.19-0.3,0.7-0.23,1.01c0.52,2.27,1.09,4.52,1.65,6.78c0.06,0.22,0.15,0.44,0.25,0.72c0.28-0.12,0.5-0.21,0.71-0.31
		c1.35-0.67,2.69-1.37,4.06-2.01c0.53-0.25,0.73-0.56,0.75-1.15c0.06-2.54,0.18-5.08,0.25-7.62C86.51,66.75,86.48,65.51,86.48,64.18
		z M86.49,97.99c1.68,0,2.94-0.32,4.09-1.03c3.1-1.92,3.33-5.86,0.48-8.1c-2.38-1.87-6.22-1.85-8.58,0.05
		c-2.8,2.25-2.56,6.17,0.5,8.06C84.16,97.7,85.45,98,86.49,97.99z M62.26,48.02c0.02-0.22,0.04-0.27,0.02-0.31
		c-1.19-3.32-2.38-6.64-3.57-9.96c-0.2-0.57-0.49-0.36-0.81-0.11c-3.03,2.35-6.07,4.7-9.1,7.05c-0.13,0.1-0.23,0.25-0.45,0.49
		C53.08,46.15,57.64,47.08,62.26,48.02z M14.03,97.84c0.48,0,0.89-0.06,1.27,0.01c1.31,0.24,2.15-0.21,2.44-1.55
		c0.08-0.39,0.34-0.5,0.73-0.49c0.77,0.03,1.55,0.09,2.3-0.01c1.36-0.19,2.29,0.17,2.62,1.62c0.04,0.16,0.31,0.39,0.48,0.39
		c0.87,0.04,1.75,0.02,2.71,0.02c-0.16-0.36-0.27-0.61-0.39-0.87c-1.23-2.52-2.57-4.98-3.64-7.56c-0.61-1.48-1.43-2.07-2.98-1.82
		c-0.43,0.07-0.66,0.17-0.85,0.57c-1.46,3.04-2.95,6.07-4.43,9.1C14.2,97.43,14.14,97.6,14.03,97.84z M9.58,95.07
		c-1.25,0.61-2.51,0.75-3.82,0.46c-1.55-0.34-2.68-1.49-2.69-2.78c-0.02-1.31,1.13-2.5,2.72-2.83c0.02,0,0.05,0,0.07-0.01
		c1.29-0.29,2.52-0.11,3.73,0.47c0.4-0.69,0.77-1.34,1.15-1.99c-2.62-1.42-6.85-1.32-9.29,1.15c-1.97,1.98-1.92,4.66,0.16,6.52
		c1.81,1.63,3.99,2.15,6.35,1.83c0.95-0.13,1.86-0.46,2.91-0.73C10.36,96.35,9.97,95.73,9.58,95.07z M63.33,88.33
		c-0.73-0.23-1.4-0.5-2.09-0.66c-1.7-0.37-3.35-0.32-4.78,0.85c-1.4,1.15-1.36,2.9,0.09,3.97c0.42,0.31,0.91,0.53,1.39,0.75
		c0.61,0.28,1.25,0.49,1.86,0.77c0.41,0.19,0.94,0.47,0.71,0.99c-0.15,0.34-0.61,0.64-0.99,0.75c-0.41,0.12-0.92,0.1-1.34-0.02
		c-0.82-0.24-1.6-0.59-2.48-0.93c-0.41,0.57-0.86,1.19-1.34,1.85c1.42,0.91,2.87,1.31,4.44,1.35c1.21,0.03,2.4-0.1,3.47-0.74
		c1.82-1.08,1.91-3.3,0.16-4.47c-0.53-0.36-1.14-0.59-1.73-0.85c-0.57-0.25-1.19-0.41-1.72-0.71c-0.31-0.17-0.5-0.56-0.74-0.85
		c0.35-0.24,0.67-0.6,1.06-0.7c0.42-0.1,0.91-0.01,1.35,0.08c0.53,0.11,1.04,0.32,1.59,0.49C62.58,89.62,62.93,89.03,63.33,88.33z
		 M129.25,90.12c0.28-0.49,0.64-1.09,1.05-1.8c-0.77-0.24-1.44-0.51-2.13-0.66c-1.7-0.37-3.35-0.3-4.77,0.88
		c-1.36,1.14-1.32,2.87,0.1,3.92c0.44,0.32,0.95,0.55,1.45,0.78c0.67,0.31,1.39,0.54,2.03,0.9c0.25,0.14,0.52,0.57,0.49,0.83
		c-0.03,0.26-0.42,0.66-0.67,0.68c-0.74,0.06-1.52,0.05-2.25-0.11c-0.63-0.14-1.21-0.51-1.86-0.8c-0.45,0.62-0.89,1.24-1.36,1.88
		c1.19,0.83,2.47,1.21,3.82,1.32c1.5,0.13,2.99,0.04,4.29-0.85c1.57-1.08,1.63-3.14,0.08-4.22c-0.68-0.47-1.49-0.74-2.25-1.1
		c-0.58-0.27-1.2-0.48-1.76-0.81c-0.49-0.29-0.46-0.81,0.03-1.09c0.26-0.15,0.6-0.27,0.88-0.24
		C127.31,89.75,128.2,89.93,129.25,90.12z M73.64,97.81c0-2.73,0-5.42,0-8.18c1.01,0,1.93,0,2.86,0c0-0.7,0-1.33,0-1.97
		c-2.89,0-5.74,0-8.59,0c0,0.67,0,1.31,0,2c0.97,0,1.89,0,2.92,0c0,2.75,0,5.44,0,8.15C71.8,97.81,72.68,97.81,73.64,97.81z
		 M4.12,80.7c0.01,0.07,0.03,0.14,0.04,0.2c3.77,0.18,7.53,0.37,11.32,0.55c0.01-0.22,0.05-0.34,0.03-0.45
		c-0.39-1.61-0.8-3.21-1.19-4.82c-0.13-0.53-0.41-0.47-0.8-0.27c-2.98,1.5-5.96,2.99-8.94,4.48C4.42,80.48,4.28,80.6,4.12,80.7z
		 M49.53,97.81c0-3.42,0-6.78,0-10.13c-0.94,0-1.83,0-2.72,0c0,3.4,0,6.75,0,10.13C47.72,97.81,48.6,97.81,49.53,97.81z
		 M88.19,77.19c-2.17,1.06-4.19,2.05-6.23,3.05c0.1,0.15,0.11,0.18,0.13,0.18c2.17,0.16,4.34,0.32,6.51,0.45
		c0.11,0.01,0.37-0.32,0.35-0.45C88.74,79.39,88.48,78.37,88.19,77.19z M114.17,91.66c0.28,0.08,0.65,0.31,0.8,0.21
		c1.05-0.71,1.98-1.55,2.13-2.91c0.08-0.73-0.42-1.3-1.2-1.46c-0.79-0.16-1.59,0.23-1.84,0.9c-0.23,0.63,0.02,1.07,0.86,1.5
		c0.06,0.03,0.12,0.07,0.27,0.16C114.86,90.57,114.54,91.07,114.17,91.66z M122.49,53.61c-0.09,0.15-0.22,0.27-0.21,0.39
		c0.01,0.12,0.12,0.25,0.21,0.36c1.43,1.82,2.87,3.63,4.31,5.44c0.09,0.12,0.35,0.28,0.38,0.25c0.32-0.3,0.67-0.6,0.88-0.97
		c0.09-0.15-0.04-0.57-0.2-0.72c-1.64-1.5-3.3-2.97-4.96-4.45C122.8,53.83,122.68,53.75,122.49,53.61z"/>
	<path class="st1" d="M10.93,62.2c0.14-0.32,0.23-0.56,0.35-0.78c8.35-16.16,16.7-32.31,25.06-48.46c0.68-1.32,1.39-2.63,2.04-3.97
		c0.28-0.58,0.56-0.64,1.1-0.34c6.21,3.44,12.43,6.87,18.65,10.3c3.97,2.19,7.94,4.38,11.91,6.57c0.23,0.12,0.44,0.26,0.77,0.45
		c-0.25,0.23-0.43,0.42-0.63,0.57c-14.93,11.2-29.85,22.4-44.79,33.58c-0.36,0.27-0.85,0.47-1.3,0.53
		c-4.18,0.54-8.37,1.05-12.56,1.56C11.37,62.21,11.21,62.2,10.93,62.2z"/>
	<path class="st1" d="M77.94,69.15c-0.28-0.63-0.52-1.14-0.75-1.66c-1.47-3.41-2.94-6.83-4.4-10.25c-0.13-0.3-0.18-0.65-0.17-0.98
		c0.27-9.54,0.56-19.08,0.84-28.62c0-0.07,0.02-0.14,0.05-0.33c0.21,0.05,0.43,0.06,0.61,0.15c9.34,4.7,18.67,9.42,28.02,14.11
		c0.63,0.32,0.59,0.58,0.2,1.06c-4.36,5.51-8.66,11.06-13.07,16.53c-0.92,1.14-2.17,2.02-3.28,3c-2.4,2.1-4.8,4.2-7.21,6.29
		C78.56,68.67,78.31,68.86,77.94,69.15z"/>
	<path class="st2" d="M98.51,75.81c2.07-10.98,4.12-21.82,6.19-32.79c0.35,0.2,0.55,0.31,0.74,0.43c1.76,1.21,3.53,2.4,5.26,3.65
		c0.29,0.21,0.54,0.62,0.59,0.97c1.21,8.59,2.39,17.19,3.58,25.79c0.25,1.79,0.26,1.8-1.59,1.82c-4.61,0.05-9.21,0.09-13.82,0.13
		C99.21,75.81,98.95,75.81,98.51,75.81z"/>
	<path class="st3" d="M71.05,52.49c-1.16-0.37-2.13-0.79-3.15-0.97c-1.98-0.36-3-1.43-3.6-3.38c-1.18-3.82-2.66-7.55-4.03-11.32
		c-0.13-0.37-0.18-0.64,0.2-0.93c3.54-2.59,7.07-5.2,10.6-7.81c0.11-0.08,0.24-0.12,0.55-0.28C71.43,36.08,71.24,44.22,71.05,52.49z
		"/>
	<path class="st4" d="M116.38,71.11c-0.13-0.74-0.25-1.39-0.35-2.04c-1.06-6.87-2.1-13.75-3.17-20.62
		c-0.09-0.55,0.07-0.71,0.62-0.85c1.24-0.32,1.93,0.16,2.66,1.15c3.5,4.74,7.09,9.43,10.65,14.13c0.23,0.3,0.47,0.54,0,0.88
		c-3.34,2.38-6.66,4.79-9.99,7.18C116.72,70.98,116.63,71,116.38,71.11z"/>
	<path class="st5" d="M19.25,62.88c-0.15,0.35-0.22,0.57-0.34,0.76c-1.97,3.43-3.94,6.86-5.92,10.28c-0.14,0.24-0.34,0.48-0.58,0.61
		c-3.01,1.55-6.02,3.07-9.04,4.6c-0.1,0.05-0.22,0.06-0.47,0.13c0.11-0.33,0.17-0.58,0.27-0.8c2.09-4.61,4.19-9.21,6.25-13.83
		c0.27-0.61,0.62-0.85,1.28-0.91c2.48-0.22,4.96-0.52,7.44-0.78C18.46,62.91,18.79,62.91,19.25,62.88z"/>
	<path class="st5" d="M127.25,77.79c-0.34-0.17-0.67-0.37-1.02-0.49c-0.29-0.1-0.61-0.12-0.93-0.16c-0.41-0.06-0.83-0.09-1.23-0.15
		c-0.14-0.02-0.27-0.15-0.4-0.15c-1.64,0.07-2.74-0.96-3.89-1.89c-0.67-0.54-1.35-1.07-2.04-1.59c-0.34-0.26-0.46-0.47-0.03-0.76
		c2.68-1.81,5.36-3.62,8.04-5.45c0.36-0.24,0.54-0.15,0.74,0.19c1.58,2.66,3.17,5.31,4.74,7.98c0.1,0.17,0.08,0.6-0.01,0.66
		C129.96,76.62,128.89,77.72,127.25,77.79z"/>
	<path class="st6" d="M33.4,15.04c-4.37-5.03-8.64-9.96-12.91-14.88C20.52,0.11,20.56,0.05,20.6,0c0.18,0.06,0.37,0.11,0.55,0.19
		c5.16,2.43,10.32,4.87,15.49,7.28c0.56,0.26,0.71,0.48,0.38,1.06c-1.08,1.92-2.11,3.88-3.16,5.81
		C33.76,14.53,33.63,14.7,33.4,15.04z"/>
	<path class="st7" d="M38.54,93.73c0-2.02,0-4.04,0-6.08c0.97,0,1.85,0,2.77,0c0,3.38,0,6.75,0,10.2c-0.86,0-1.71,0.02-2.56-0.02
		c-0.18-0.01-0.39-0.24-0.53-0.41c-1.51-1.92-3.01-3.85-4.61-5.9c0,2.18,0,4.22,0,6.29c-0.98,0-1.87,0-2.8,0c0-3.39,0-6.76,0-10.18
		c0.85,0,1.67-0.04,2.48,0.02c0.25,0.02,0.53,0.28,0.71,0.5c1.47,1.86,2.92,3.74,4.38,5.61C38.43,93.75,38.49,93.74,38.54,93.73z"/>
	<path class="st7" d="M105.77,93.73c0-2,0-4,0-6.05c0.96,0,1.85,0,2.79,0c0,3.36,0,6.72,0,10.17c-0.86,0-1.72,0.02-2.57-0.02
		c-0.18-0.01-0.39-0.24-0.53-0.41c-1.51-1.92-3.01-3.85-4.61-5.9c0,2.18,0,4.22,0,6.3c-0.97,0-1.87,0-2.8,0c0-3.38,0-6.73,0-10.18
		c0.88,0,1.76-0.03,2.63,0.02c0.2,0.01,0.41,0.3,0.56,0.49c1.46,1.87,2.92,3.74,4.38,5.61C105.67,93.75,105.72,93.74,105.77,93.73z"
		/>
	<path class="st8" d="M102.66,45.4c-1.12,5.82-2.23,11.63-3.39,17.63c-2.46-1.62-4.79-3.15-7.26-4.78
		c3.5-4.35,6.95-8.65,10.41-12.94C102.49,45.34,102.58,45.37,102.66,45.4z"/>
	<path class="st9" d="M86.48,64.18c0,1.33,0.03,2.57-0.01,3.81c-0.07,2.54-0.19,5.08-0.25,7.62c-0.01,0.59-0.22,0.91-0.75,1.15
		c-1.37,0.64-2.71,1.34-4.06,2.01c-0.21,0.1-0.43,0.19-0.71,0.31c-0.1-0.28-0.19-0.5-0.25-0.72c-0.56-2.26-1.13-4.51-1.65-6.78
		c-0.07-0.31,0.01-0.82,0.23-1.01c2.35-2.11,4.75-4.19,7.13-6.26C86.23,64.26,86.33,64.24,86.48,64.18z"/>
	<path class="st10" d="M86.49,97.99c-1.04,0-2.33-0.3-3.51-1.02c-3.06-1.89-3.29-5.81-0.5-8.06c2.36-1.9,6.2-1.92,8.58-0.05
		c2.85,2.24,2.62,6.18-0.48,8.1C89.43,97.68,88.17,97.99,86.49,97.99z M86.77,95.7c1.96,0.01,3.23-1.15,3.24-2.96
		c0.01-1.76-1.27-2.97-3.15-2.99c-1.93-0.02-3.25,1.17-3.27,2.95C83.55,94.52,84.8,95.7,86.77,95.7z"/>
	<path class="st11" d="M62.26,48.02c-4.62-0.94-9.18-1.87-13.9-2.84c0.22-0.24,0.32-0.38,0.45-0.49c3.03-2.35,6.07-4.7,9.1-7.05
		c0.32-0.25,0.6-0.46,0.81,0.11c1.19,3.32,2.38,6.64,3.57,9.96C62.3,47.75,62.28,47.8,62.26,48.02z"/>
	<path class="st1" d="M14.03,97.84c0.1-0.24,0.17-0.42,0.25-0.58c1.48-3.03,2.97-6.06,4.43-9.1c0.19-0.4,0.42-0.5,0.85-0.57
		c1.55-0.25,2.36,0.34,2.98,1.82c1.07,2.58,2.42,5.05,3.64,7.56c0.12,0.25,0.23,0.51,0.39,0.87c-0.96,0-1.84,0.02-2.71-0.02
		c-0.17-0.01-0.44-0.23-0.48-0.39c-0.33-1.45-1.26-1.81-2.62-1.62c-0.75,0.1-1.53,0.04-2.3,0.01c-0.4-0.02-0.65,0.09-0.73,0.49
		c-0.29,1.34-1.13,1.79-2.44,1.55C14.92,97.78,14.51,97.84,14.03,97.84z M18.93,93.75c0.97,0,1.81,0,2.75,0
		c-0.46-1-0.89-1.93-1.38-2.99C19.81,91.84,19.39,92.76,18.93,93.75z"/>
	<path class="st10" d="M9.58,95.07c0.4,0.65,0.78,1.28,1.28,2.11c-1.04,0.27-1.96,0.6-2.91,0.73c-2.37,0.32-4.54-0.2-6.35-1.83
		c-2.08-1.87-2.13-4.54-0.16-6.52c2.45-2.47,6.68-2.58,9.29-1.15c-0.38,0.65-0.75,1.3-1.15,1.99c-1.22-0.58-2.45-0.76-3.73-0.47
		c-0.02,0.01-0.05,0-0.07,0.01c-1.59,0.33-2.73,1.52-2.72,2.83c0.02,1.29,1.15,2.44,2.69,2.78C7.06,95.82,8.32,95.68,9.58,95.07z"/>
	<path class="st10" d="M63.33,88.33c-0.41,0.7-0.76,1.29-1.12,1.91c-0.55-0.18-1.06-0.38-1.59-0.49c-0.44-0.09-0.93-0.18-1.35-0.08
		c-0.39,0.1-0.71,0.45-1.06,0.7c0.24,0.29,0.43,0.68,0.74,0.85c0.54,0.3,1.15,0.46,1.72,0.71c0.59,0.26,1.2,0.5,1.73,0.85
		c1.75,1.17,1.66,3.39-0.16,4.47c-1.07,0.63-2.26,0.77-3.47,0.74c-1.56-0.04-3.02-0.44-4.44-1.35c0.48-0.66,0.93-1.28,1.34-1.85
		c0.88,0.34,1.66,0.69,2.48,0.93c0.42,0.12,0.93,0.15,1.34,0.02c0.38-0.11,0.85-0.41,0.99-0.75c0.23-0.53-0.3-0.8-0.71-0.99
		c-0.61-0.28-1.25-0.49-1.86-0.77c-0.48-0.22-0.97-0.44-1.39-0.75c-1.45-1.07-1.48-2.82-0.09-3.97c1.43-1.17,3.08-1.22,4.78-0.85
		C61.94,87.82,62.6,88.09,63.33,88.33z"/>
	<path class="st10" d="M129.25,90.12c-1.05-0.18-1.94-0.37-2.83-0.47c-0.28-0.03-0.62,0.09-0.88,0.24c-0.49,0.29-0.51,0.8-0.03,1.09
		c0.55,0.33,1.17,0.53,1.76,0.81c0.76,0.35,1.57,0.63,2.25,1.1c1.55,1.08,1.49,3.14-0.08,4.22c-1.3,0.89-2.79,0.98-4.29,0.85
		c-1.35-0.11-2.63-0.5-3.82-1.32c0.46-0.64,0.91-1.26,1.36-1.88c0.65,0.29,1.23,0.66,1.86,0.8c0.73,0.16,1.5,0.17,2.25,0.11
		c0.25-0.02,0.64-0.42,0.67-0.68c0.03-0.26-0.24-0.69-0.49-0.83c-0.64-0.36-1.36-0.59-2.03-0.9c-0.5-0.23-1.01-0.45-1.45-0.78
		c-1.42-1.06-1.45-2.78-0.1-3.92c1.41-1.19,3.07-1.25,4.77-0.88c0.69,0.15,1.36,0.42,2.13,0.66
		C129.89,89.02,129.53,89.63,129.25,90.12z"/>
	<path class="st12" d="M73.64,97.81c-0.96,0-1.84,0-2.82,0c0-2.71,0-5.4,0-8.15c-1.03,0-1.95,0-2.92,0c0-0.69,0-1.33,0-2
		c2.86,0,5.7,0,8.59,0c0,0.64,0,1.27,0,1.97c-0.92,0-1.85,0-2.86,0C73.64,92.39,73.64,95.08,73.64,97.81z"/>
	<path class="st13" d="M4.12,80.7c0.15-0.1,0.29-0.22,0.46-0.3c2.98-1.49,5.97-2.98,8.94-4.48c0.39-0.2,0.67-0.26,0.8,0.27
		c0.39,1.61,0.8,3.21,1.19,4.82c0.03,0.11-0.01,0.23-0.03,0.45c-3.79-0.18-7.56-0.37-11.32-0.55C4.15,80.84,4.14,80.77,4.12,80.7z"
		/>
	<path class="st12" d="M49.53,97.81c-0.93,0-1.8,0-2.72,0c0-3.38,0-6.73,0-10.13c0.89,0,1.78,0,2.72,0
		C49.53,91.03,49.53,94.39,49.53,97.81z"/>
	<path class="st14" d="M88.19,77.19c0.28,1.19,0.55,2.2,0.75,3.23c0.03,0.13-0.23,0.45-0.35,0.45c-2.17-0.13-4.34-0.29-6.51-0.45
		c-0.01,0-0.03-0.04-0.13-0.18C84,79.24,86.02,78.25,88.19,77.19z"/>
	<path class="st15" d="M114.17,91.66c0.37-0.59,0.69-1.09,1.01-1.6c-0.15-0.09-0.21-0.13-0.27-0.16c-0.83-0.43-1.09-0.87-0.86-1.5
		c0.25-0.67,1.05-1.06,1.84-0.9c0.78,0.16,1.28,0.73,1.2,1.46c-0.15,1.37-1.08,2.2-2.13,2.91
		C114.82,91.97,114.45,91.74,114.17,91.66z"/>
	<path class="st16" d="M122.49,53.61c0.19,0.15,0.31,0.22,0.42,0.32c1.66,1.48,3.32,2.95,4.96,4.45c0.16,0.15,0.29,0.56,0.2,0.72
		c-0.22,0.37-0.56,0.67-0.88,0.97c-0.03,0.03-0.28-0.13-0.38-0.25c-1.44-1.81-2.88-3.63-4.31-5.44c-0.09-0.11-0.21-0.24-0.21-0.36
		C122.27,53.88,122.4,53.76,122.49,53.61z M127.13,59.74c0.79-0.73,0.81-0.87,0.18-1.45c-1.1-1.03-2.22-2.03-3.34-3.04
		c-0.08-0.07-0.21-0.08-0.32-0.12c-0.03,0.04-0.05,0.07-0.08,0.11C124.75,56.73,125.93,58.22,127.13,59.74z"/>
	<path class="st17" d="M86.77,95.7c-1.97-0.01-3.22-1.19-3.19-3c0.03-1.78,1.34-2.96,3.27-2.95c1.89,0.02,3.16,1.22,3.15,2.99
		C90,94.55,88.73,95.71,86.77,95.7z"/>
	<path class="st18" d="M18.93,93.75c0.45-0.99,0.87-1.91,1.37-2.99c0.49,1.06,0.92,1.99,1.38,2.99
		C20.74,93.75,19.9,93.75,18.93,93.75z"/>
	<path class="st11" d="M127.13,59.74c-1.21-1.53-2.38-3.01-3.56-4.5c0.03-0.04,0.05-0.07,0.08-0.11c0.11,0.04,0.24,0.05,0.32,0.12
		c1.12,1.01,2.24,2.01,3.34,3.04C127.95,58.88,127.92,59.01,127.13,59.74z"/>
</g>
</svg>
